<?xml version="1.0" standalone="no"?>
<!DOCTYPE svg PUBLIC "-//W3C//DTD SVG 20010904//EN"
 "http://www.w3.org/TR/2001/REC-SVG-20010904/DTD/svg10.dtd">
<svg version="1.0" xmlns="http://www.w3.org/2000/svg"
 width="960.000000pt" height="960.000000pt" viewBox="0 0 960.000000 960.000000"
 preserveAspectRatio="xMidYMid meet">
<metadata>
Created by potrace 1.11, written by Peter Selinger 2001-2013
</metadata>
<g transform="translate(0.000000,960.000000) scale(0.100000,-0.100000)"
fill="#000000" stroke="none">
<path d="M3886 7831 c-2 -3 -4 -924 -4 -2046 l1 -2040 741 0 741 1 3 742 2
742 370 0 370 0 0 1303 0 1303 -1111 0 c-610 0 -1112 -2 -1113 -5z"/>
<path d="M3891 3380 c-4 -3 -7 -255 -7 -560 l1 -555 743 -2 742 -3 0 560 c0
308 -3 561 -7 561 -25 4 -1466 3 -1472 -1z"/>
</g>
</svg>
